Coordinates
version=1
nRows=4
nColumns=107
inDegrees=yes

Units are S.I. units (second, meters, Newtons, ...)
If the header above contains a line with 'inDegrees', this indicates whether rotational values are in degrees (yes) or radians (no).

endheader
time	sternoclavicular_r2	sternoclavicular_r3	unrotscap_r3	unrotscap_r2	acromioclavicular_r2	acromioclavicular_r3	acromioclavicular_r1	unrothum_r1	unrothum_r3	unrothum_r2	elv_angle	shoulder_elv	shoulder1_r2	shoulder_rot	elbow_flexion	pro_sup	deviation	flexion	proximal_distal_r1	proximal_distal_r3	cmc_flexion	cmc_abduction	mp_flexion	ip_flexion	mcp2_flexion	mcp2_abduction	pm2_flexion	md2_flexion	mcp3_flexion	mcp3_abduction	pm3_flexion	md3_flexion	mcp4_flexion	mcp4_abduction	pm4_flexion	md4_flexion	mcp5_flexion	mcp5_abduction	pm5_flexion	md5_flexion	bicpt_tx	bicpt_ty	bicpt_tz	bicpt2_tx	bicpt2_ty	bicpt2_tz	ptpt_tx	ptpt_ty	ptpt_tz	FCUpt_tx	FCUpt_ty	FCUpt_tz	EDCpt_tx	EDCpt_ty	EDCpt_tz	APLpt_tx	APLpt_ty	APLpt_tz	FPLpt_tx	FPLpt_ty	FPLpt_tz	FPLpt2_tx	FPLpt2_ty	FPLpt2_tz	PEC1pt2_tx	PEC1pt2_ty	PEC1pt2_tz	PEC1pt3_tx	PEC1pt3_ty	PEC1pt3_tz	PEC2pt2_tx	PEC2pt2_ty	PEC2pt2_tz	PEC2pt3_tx	PEC2pt3_ty	PEC2pt3_tz	PEC3pt2_tx	PEC3pt2_ty	PEC3pt2_tz	PEC3pt3_tx	PEC3pt3_ty	PEC3pt3_tz	DELT2pt2a_tx	DELT2pt2a_ty	DELT2pt2a_tz	DELT2pt2_tx	DELT2pt2_ty	DELT2pt2_tz	LAT1pt2_tx	LAT1pt2_ty	LAT1pt2_tz	LAT1pt3_tx	LAT1pt3_ty	LAT1pt3_tz	LAT2pt2_tx	LAT2pt2_ty	LAT2pt2_tz	LAT2pt3_tx	LAT2pt3_ty	LAT2pt3_tz	LAT3pt2_tx	LAT3pt2_ty	LAT3pt2_tz	LAT3pt3_tx	LAT3pt3_ty	LAT3pt3_tz
      0.00000000	     -0.31428937	      0.13311814	     -0.13311814	      0.31428937	     -0.06363720	      0.51429350	      0.23117139	     -0.23117139	     -0.51429350	      0.06363720	    101.50653437	     74.41080208	     -1.77162324	    -37.36958768	     30.79235744	     80.49209538	      0.32509557	     -0.61522271	      0.35469508	     -0.30761135	     39.80812340	    -14.09456374	      6.11065370	      3.66922869	    107.10421222	     11.24773190	     70.07983523	     60.77163519	     99.26264605	     -0.80618615	     79.75231821	     56.18901482	     91.66545731	    -13.03566260	     92.06072130	     40.48996517	    102.72267343	    -13.77739556	     84.59424693	      5.32172786	      0.00091852	     -0.03112927	     -0.00486847	      0.01477455	     -0.01856489	     -0.00199799	      0.00160254	     -0.06874572	     -0.00653407	      0.01210996	     -0.18241995	     -0.00005648	     -0.00965903	      0.00328044	     -0.00058858	      0.00031250	      0.00012500	      0.00062500	      0.00040000	      0.00119999	      0.00067500	     -0.00001071	     -0.00011484	     -0.00013781	      0.00243902	      0.00855725	      0.00595287	     -0.00797850	      0.01926415	     -0.01827200	      0.00243902	      0.00855725	      0.00595287	      0.00053741	      0.01785861	     -0.00938404	      0.00388089	      0.00475858	      0.01580142	      0.00000000	      0.00740261	      0.00000000	     -0.00698635	     -0.03228605	     -0.00610159	      0.02178175	     -0.00101566	     -0.01139310	     -0.00086813	      0.01455146	     -0.00595287	      0.00239768	      0.02100040	     -0.01736254	     -0.00582885	      0.01260851	     -0.00533278	     -0.01215377	      0.02662255	     -0.02980569	     -0.02281933	      0.01409672	     -0.00715171	     -0.01513021	      0.03075649	     -0.03724677
      0.03333333	     -0.31382911	      0.13292320	     -0.13292320	      0.31382911	     -0.06354401	      0.51354034	      0.23083285	     -0.23083285	     -0.51354034	      0.06354401	    102.14223418	     74.30183036	     -1.78271829	    -39.09684293	     30.28816545	     83.81929570	      0.34196768	     -0.57928505	      0.36838084	     -0.28964252	     41.52897610	    -16.21628738	      5.07531455	      4.92085177	    107.08176830	     12.23939802	     73.43151433	     61.49594679	     99.88402662	     -0.60734747	     81.25094951	     55.70897135	     92.53891514	    -13.71463128	     92.01889726	     40.40133285	    102.32747316	    -14.26500926	     84.32783706	      5.56477364	      0.00090184	     -0.03107149	     -0.00485917	      0.01445989	     -0.01842793	     -0.00144615	      0.00135670	     -0.06890469	     -0.00680209	      0.01248822	     -0.18231091	      0.00002552	     -0.01005829	      0.00345908	     -0.00068848	      0.00031167	      0.00012467	      0.00062333	      0.00039893	      0.00119680	      0.00067320	     -0.00000823	     -0.00008008	     -0.00009610	      0.00243545	      0.00854472	      0.00594415	     -0.00796681	      0.01923593	     -0.01824524	      0.00243545	      0.00854472	      0.00594415	      0.00053662	      0.01783245	     -0.00937029	      0.00387670	      0.00475161	      0.01579085	      0.00000000	      0.00738080	      0.00000000	     -0.00697612	     -0.03223877	     -0.00608348	      0.02235727	     -0.00107802	     -0.01238564	     -0.00086686	      0.01453015	     -0.00594415	      0.00239417	      0.02096965	     -0.01733711	     -0.00582031	      0.01259004	     -0.00532497	     -0.01213598	      0.02658357	     -0.02976204	     -0.02278591	      0.01407608	     -0.00714124	     -0.01510805	      0.03071145	     -0.03719223
      0.06666667	     -0.31416170	      0.13306407	     -0.13306407	      0.31416170	     -0.06361135	      0.51408458	      0.23107748	     -0.23107748	     -0.51408458	      0.06361135	    102.22934544	     74.38057476	     -1.78423867	    -39.17749293	     29.99297416	     83.77498901	      0.34141738	     -0.57808222	      0.36794150	     -0.28904111	     41.43871460	    -16.26013461	      5.02940485	      4.92061323	    107.02292801	     12.23191438	     73.43468871	     61.50031495	     99.83955753	     -0.60347237	     81.21395752	     55.69168673	     92.51760732	    -13.69733915	     92.01247135	     40.40264746	    102.28181959	    -14.26042257	     84.30805638	      5.56020213	      0.00089207	     -0.03103765	     -0.00485372	      0.01446424	     -0.01834774	     -0.00145360	      0.00135997	     -0.06890257	     -0.00679852	      0.01248316	     -0.18231238	      0.00002438	     -0.01005298	      0.00345668	     -0.00068712	      0.00031160	      0.00012464	      0.00062320	      0.00039885	      0.00119654	      0.00067306	     -0.00000838	     -0.00008199	     -0.00009838	      0.00243803	      0.00855377	      0.00595045	     -0.00797526	      0.01925632	     -0.01826458	      0.00243803	      0.00855377	      0.00595045	      0.00053719	      0.01785135	     -0.00938022	      0.00387973	      0.00475664	      0.01579849	      0.00000000	      0.00739656	      0.00000000	     -0.00698352	     -0.03227293	     -0.00609657	      0.02238310	     -0.00108095	     -0.01243269	     -0.00086777	      0.01454555	     -0.00595045	      0.00239671	      0.02099187	     -0.01735548	     -0.00582648	      0.01260339	     -0.00533061	     -0.01214884	      0.02661174	     -0.02979358	     -0.02281006	      0.01409100	     -0.00714881	     -0.01512406	      0.03074400	     -0.03723164
      0.10000000	     -0.31302201	      0.13258135	     -0.13258135	      0.31302201	     -0.06338059	      0.51221964	      0.23023920	     -0.23023920	     -0.51221964	      0.06338059	    102.08563320	     74.11074442	     -1.78173042	    -39.60144111	     30.92930989	     85.22985688	      0.35996116	     -0.46846567	      0.38246247	     -0.23423284	     41.06119983	    -16.54137353	      4.02894213	      7.25743124	    104.77143976	     12.07018358	     75.21667776	     61.60812367	     98.43009906	     -0.47643630	     81.23807178	     51.82818860	     91.22849835	    -13.63672527	     92.48261795	     40.95630001	    100.30950253	    -14.26270067	     84.04124925	      5.56124836	      0.00092305	     -0.03114497	     -0.00487100	      0.01431884	     -0.01860210	     -0.00120751	      0.00125248	     -0.06897208	     -0.00691572	      0.01264962	     -0.18226373	      0.00006281	     -0.01022756	      0.00353584	     -0.00073265	      0.00029552	      0.00011821	      0.00059104	      0.00037826	      0.00113479	      0.00063832	     -0.00000900	     -0.00008985	     -0.00010782	      0.00242919	      0.00852274	      0.00592886	     -0.00794633	      0.01918646	     -0.01819832	      0.00242919	      0.00852274	      0.00592886	      0.00053524	      0.01778659	     -0.00934620	      0.00386933	      0.00473939	      0.01577227	      0.00000000	      0.00734264	      0.00000000	     -0.00695818	     -0.03215586	     -0.00605178	      0.02251805	     -0.00109635	     -0.01268055	     -0.00086463	      0.01449278	     -0.00592886	      0.00238801	      0.02091572	     -0.01729252	     -0.00580535	      0.01255766	     -0.00531127	     -0.01210477	      0.02651520	     -0.02968550	     -0.02272731	      0.01403988	     -0.00712287	     -0.01506920	      0.03063247	     -0.03709658
